<?xml version="1.0" encoding="utf-8"?>
<!-- Generator: Adobe Illustrator 26.5.0, SVG Export Plug-In . SVG Version: 6.00 Build 0)  -->
<svg version="1.1" id="dorma_x2B_kaba_x5F_4C_x5F_pos"
	 xmlns="http://www.w3.org/2000/svg" xmlns:xlink="http://www.w3.org/1999/xlink" x="0px" y="0px" viewBox="0 0 283.46 30.09"
	 style="enable-background:new 0 0 283.46 30.09;" xml:space="preserve">
<style type="text/css">
	.st0{fill:#FFFFFF;}
</style>
<path class="st0" d="M18.01,8.97c-1.68-1.8-3.96-2.75-6.66-2.75C4.88,6.22,0,11.35,0,18.16c0,6.8,4.88,11.93,11.36,11.93
	c3.36,0,5.06-1.14,6.66-3v2.43h5.42V0h-5.42V8.97z M11.93,24.95c-3.76,0-6.38-2.79-6.38-6.79c0-4,2.62-6.8,6.38-6.8
	c3.76,0,6.38,2.79,6.38,6.8C18.31,22.16,15.69,24.95,11.93,24.95z"/>
<path class="st0" d="M38.56,6.22c-6.95,0-12.19,5.13-12.19,11.94c0,6.8,5.24,11.93,12.19,11.93c6.96,0,12.21-5.13,12.21-11.93
	C50.77,11.35,45.52,6.22,38.56,6.22z M38.56,24.95c-3.84,0-6.63-2.86-6.63-6.79c0-3.94,2.79-6.8,6.63-6.8c3.86,0,6.66,2.86,6.66,6.8
	C45.21,22.09,42.41,24.95,38.56,24.95z"/>
<path class="st0" d="M99.04,6.22c-2.57,0-6,0.66-8.09,3.7c-1.66-2.36-4.41-3.7-7.64-3.7c-1.96,0-4.59,0.49-6.49,2.71V6.8h-5.39
	v22.71h5.44V16.96c0-3.83,2.73-5.55,5.43-5.55c3.09,0,4.86,2.01,4.86,5.5v12.6h5.44V16.96c0-3.83,2.73-5.55,5.43-5.55
	c3.09,0,4.86,2.01,4.86,5.5v12.6h5.44v-14.2C108.32,9.96,104.5,6.22,99.04,6.22z"/>
<polygon class="st0" points="160.93,6.8 154.06,6.8 146.77,15.21 144.77,15.21 144.77,0 139.33,0 139.33,29.51 144.77,29.51 
	144.77,20.18 146.74,20.18 154.1,29.51 160.98,29.51 151.4,17.52 "/>
<path class="st0" d="M200.42,6.22c-2.68,0-4.96,0.93-6.63,2.71V0h-5.42v29.51h5.42v-2.43c1.48,1.97,3.81,3,6.63,3
	c6.47,0,11.36-5.13,11.36-11.93C211.77,11.35,206.89,6.22,200.42,6.22z M199.84,24.95c-3.76,0-6.38-2.79-6.38-6.79
	c0-4,2.62-6.8,6.38-6.8c3.76,0,6.38,2.79,6.38,6.8C206.22,22.16,203.6,24.95,199.84,24.95z"/>
<path class="st0" d="M231.81,9.17c-1.47-1.84-3.5-2.95-6.66-2.95c-6.47,0-11.36,5.13-11.36,11.94c0,6.8,4.88,11.93,11.36,11.93
	c3.14,0,5.17-1.09,6.66-3v2.43h5.42V6.8l-5.42,0V9.17z M225.73,24.95c-3.76,0-6.38-2.79-6.38-6.79c0-4,2.62-6.8,6.38-6.8
	c3.76,0,6.38,2.79,6.38,6.8C232.11,22.16,229.48,24.95,225.73,24.95z"/>
<path class="st0" d="M178.14,9.17c-1.47-1.84-3.5-2.95-6.66-2.95c-6.47,0-11.36,5.13-11.36,11.94c0,6.8,4.88,11.93,11.36,11.93
	c3.14,0,5.17-1.09,6.66-3v2.43h5.42V6.8l-5.42,0V9.17z M172.06,24.95c-3.76,0-6.38-2.79-6.38-6.79c0-4,2.62-6.8,6.38-6.8
	c3.76,0,6.38,2.79,6.38,6.8C178.44,22.16,175.82,24.95,172.06,24.95z"/>
<path class="st0" d="M129.11,9.17c-1.47-1.84-3.5-2.95-6.66-2.95c-6.47,0-11.36,5.13-11.36,11.94c0,6.8,4.88,11.93,11.36,11.93
	c3.14,0,5.17-1.09,6.66-3v2.43h5.42V6.8l-5.42,0V9.17z M123.03,24.95c-3.76,0-6.38-2.79-6.38-6.79c0-4,2.62-6.8,6.38-6.8
	c3.76,0,6.38,2.79,6.38,6.8C129.41,22.16,126.79,24.95,123.03,24.95z"/>
<polygon class="st0" points="245.35,6.8 245.35,25.35 255.42,13.66 "/>
<polygon class="st0" points="264.92,6.8 245.35,29.51 270.01,12.68 "/>
<polygon class="st0" points="250.21,29.51 283.46,29.51 283.46,6.8 "/>
<path class="st0" d="M59.25,8.73V6.8h-5.37v22.71h5.42V17.05c0-3.43,1.95-5.64,4.97-5.64c1.2,0,2.53,0.28,3.43,0.73l1.29-5.35
	c-1.06-0.39-2.18-0.56-3.61-0.56C62.8,6.22,60.7,7.09,59.25,8.73z"/>
</svg>
