<?xml version="1.0" encoding="iso-8859-1"?>
<svg xmlns="http://www.w3.org/2000/svg" xmlns:xlink="http://www.w3.org/1999/xlink" id="Icon" x="0px" y="0px" enable-background="new 0 0 32 32" version="1.1" viewBox="0 0 32 32" xml:space="preserve">
    <path fill="#484848" d="M23.946,5.152H8.057c-1.596,0-2.889,1.293-2.889,2.889V23.94c0,1.59,1.289,2.879,2.879,2.879h15.899
	c1.595,0,2.889-1.293,2.889-2.889V8.041C26.835,6.445,25.542,5.152,23.946,5.152z M25.835,23.93c0,1.042-0.848,1.889-1.889,1.889
	H8.047c-1.036,0-1.879-0.843-1.879-1.879V8.041c0-1.042,0.848-1.889,1.889-1.889h15.889c1.042,0,1.889,0.848,1.889,1.889V23.93z
	 M18.435,12.652h-4.878c-0.491,0-0.889,0.398-0.889,0.889v4.878c0,0.497,0.403,0.9,0.9,0.9h4.878c0.491,0,0.889-0.398,0.889-0.889
	v-4.878C19.335,13.055,18.932,12.652,18.435,12.652z M18.629,18.43c0,0.101-0.082,0.183-0.183,0.183h-4.878
	c-0.107,0-0.194-0.087-0.194-0.194v-4.878c0-0.101,0.082-0.183,0.183-0.183h4.878c0.107,0,0.194,0.087,0.194,0.195V18.43z"/>
</svg>
