<svg xmlns="http://www.w3.org/2000/svg" id="Icon" viewBox="0 0 32 32">
    <title fill="#484848">
        060321-key-holder
    </title>
    <path fill="#484848" d="M14.12,17.9A5.84,5.84,0,0,0,20,12.06.43.43,0,0,1,20,12h0V7.91c0-1.78-3.22-3.23-6.06-3.23S8.29,6.13,8.29,7.91V12h0a.11.11,0,0,0,0,.05A5.83,5.83,0,0,0,14.12,17.9Zm-4.83-10c0-1,2.13-2.23,4.61-2.23C16.64,5.68,19,7.05,19,7.91v4A.41.41,0,0,0,19,12a.31.31,0,0,0,0,.09,4.84,4.84,0,0,1-9.67,0V7.91Zm-4,11.77h8.83v1H5.63L2.7,28H1.63l3.2-8A.52.52,0,0,1,5.3,19.68Zm12.56,4.76c0,.22.13.4.28.4h.33c.16,0,.28-.18.28-.4s-.12-.39-.28-.39h-.33C18,24.05,17.86,24.22,17.86,24.44Zm7.65-.53a.77.77,0,1,1-.77.77A.77.77,0,0,1,25.51,23.91ZM16,24.05h.81c.15,0,.28.17.28.39s-.13.4-.28.4H16c-.15,0-.28-.18-.28-.4S15.85,24.05,16,24.05Zm-4.69-.14a.42.42,0,0,0-.1.26v.9a.46.46,0,0,0,0,.2L12,26.38a.38.38,0,0,0,.34.2H20a4.14,4.14,0,0,0,3.71,2.29A4.19,4.19,0,1,0,20,22.79H12.6a.39.39,0,0,0-.28.11Zm.64.45.87-.88h7.83l0-.09a2.44,2.44,0,0,1,.2-.49,3.39,3.39,0,0,1,2.88-1.64,3.42,3.42,0,1,1,0,6.84,3.13,3.13,0,0,1-.91-.13,3.29,3.29,0,0,1-1.19-.61,3.36,3.36,0,0,1-.78-.89,4.26,4.26,0,0,1-.24-.51l0-.08h-8L12,25Zm2.24-.31h.62c.15,0,.28.17.28.39s-.13.4-.28.4h-.62c-.15,0-.28-.18-.28-.4S14,24.05,14.19,24.05Z"/>
</svg>
