<svg xmlns="http://www.w3.org/2000/svg" id="Icon" viewBox="0 0 32 32">
    <path fill="#484848" d="M9,24H6.57a.49.49,0,1,1,0-1H9a.49.49,0,1,1,0,1ZM6.57,8H9A.5.5,0,0,0,9,7H6.57a.5.5,0,0,0,0,1Zm0,4.51H9A.49.49,0,0,0,9.49,12a.5.5,0,0,0-.49-.5H6.54a.5.5,0,0,0-.49.5A.49.49,0,0,0,6.54,12.5ZM20,11H14v2h6Zm2-4H14V9h8Zm4-2.51v22a.49.49,0,0,1-.49.49H8.21a.49.49,0,0,1-.49-.49V24.45H9a1,1,0,0,0,1-.95,1,1,0,0,0-1-1H7.72V20H9a1,1,0,0,0,1-1,1,1,0,0,0-1-1H7.72V13H9.09a1,1,0,0,0,0-2H7.72V8.45H9a1,1,0,0,0,1-1,1,1,0,0,0-1-.94H7.72V4.49A.49.49,0,0,1,8.21,4h17.3A.49.49,0,0,1,26,4.49ZM25,5H12V26H25ZM6.49,19.49H9a.5.5,0,0,0,0-1H6.49a.5.5,0,0,0,0,1Z"/>
</svg>
