<?xml version="1.0" encoding="iso-8859-1"?>
<svg xmlns="http://www.w3.org/2000/svg" xmlns:xlink="http://www.w3.org/1999/xlink" id="Icon" x="0px" y="0px" enable-background="new 0 0 32 32" version="1.1" viewBox="0 0 32 32" xml:space="preserve">
    <g fill="#484848">
        <path fill="#484848" d="M14.123,17.897c3.222,0,5.833-2.612,5.833-5.833c0-0.018-0.005-0.034-0.005-0.052h0.005V7.915
		c0-1.786-3.219-3.234-6.053-3.234c-2.834,0-5.614,1.448-5.614,3.234v4.097h0.005c0,0.018-0.005,0.034-0.005,0.052
		C8.29,15.286,10.901,17.897,14.123,17.897z M9.289,7.915c0-1.006,2.129-2.235,4.614-2.235c2.741,0,5.053,1.373,5.053,2.235v3.995
		c-0.004,0.036-0.006,0.073-0.005,0.11c0,0.025,0.002,0.058,0.005,0.09c-0.025,2.644-2.184,4.788-4.834,4.788
		c-2.65,0-4.809-2.143-4.834-4.787c0.003-0.032,0.005-0.065,0.005-0.09c0-0.037-0.001-0.073-0.005-0.109V7.915z M5.295,19.681h8.831
		v1H5.633l-2.93,7.326H1.626l3.204-8.011C4.907,19.805,5.091,19.681,5.295,19.681z M30.005,23.967l-0.059-2.184l-1.391-0.331
		l-0.538-1.217l0.672-1.213l-1.549-1.549l-1.157,0.78l-1.44-0.527l-0.274-1.371h-2.17l-0.247,1.433l-1.308,0.609l-1.301-0.742
		l-1.49,1.6l0.901,1.057l-0.629,1.585l-1.374,0.265l0.073,2.096l1.409,0.257l0.626,1.384l-0.72,1.201l1.541,1.592l1.149-0.924
		l1.444,0.539l0.329,1.364h2.096l0.326-1.478l1.434-0.577l1.111,0.776l1.439-1.527l-0.772-1.4l0.495-1.103L30.005,23.967z
		 M23.328,25.331c-1.28,0-2.317-1.038-2.317-2.317c0-1.28,1.038-2.317,2.317-2.317s2.317,1.038,2.317,2.317
		C25.646,24.294,24.608,25.331,23.328,25.331z"/>
    </g>
</svg>
